<?xml version="1.0" encoding="UTF-8" standalone="no"?>
<!DOCTYPE svg PUBLIC "-//W3C//DTD SVG 1.1//EN" "http://www.w3.org/Graphics/SVG/1.1/DTD/svg11.dtd">
<svg width="100%" height="100%" viewBox="0 0 55 52" version="1.1" xmlns="http://www.w3.org/2000/svg" xmlns:xlink="http://www.w3.org/1999/xlink" xml:space="preserve" xmlns:serif="http://www.serif.com/" style="fill-rule:evenodd;clip-rule:evenodd;stroke-linecap:round;stroke-linejoin:round;stroke-miterlimit:1.5;">
    <g transform="matrix(1,0,0,1,-289.75,-192)">
        <g transform="matrix(-1.39164e-16,0.757576,-0.77512,-1.42387e-16,425.701,-35.0303)">
            <path d="M331.27,116.43C331.884,115.546 332.907,115.016 334,115.016C335.093,115.016 336.116,115.546 336.73,116.43C342.696,125.017 356.89,145.448 363.501,154.963C364.187,155.951 364.259,157.229 363.687,158.284C363.114,159.34 361.992,160 360.77,160C348.177,160 319.823,160 307.23,160C306.008,160 304.886,159.34 304.313,158.284C303.741,157.229 303.813,155.951 304.499,154.963C311.11,145.448 325.304,125.017 331.27,116.43Z" style="fill:none;stroke:rgb(128,128,128);stroke-width:2.61px;"/>
        </g>
        <g transform="matrix(1,0,0,0.909091,-2.25,95.2727)">
            <rect x="293" y="107.5" width="53" height="55" style="fill:none;stroke:rgb(86,86,86);stroke-opacity:0;stroke-width:2.09px;"/>
        </g>
    </g>
</svg>
